<svg xmlns="http://www.w3.org/2000/svg"><symbol id="facebook" viewBox="0 0 252 252"><path d="M126 31a95 95 0 1 1-95 95 95.1 95.1 0 0 1 95-95zm0-19a114 114 0 1 0 114 114A113.9 113.9 0 0 0 126 12zm-19 95H88v19h19v57h28.5v-57h17.3l1.7-19h-19v-7.9c0-4.6.9-6.3 5.3-6.3h13.7V69h-22.8c-17.1 0-24.7 7.5-24.7 21.9z"/></symbol><symbol id="cart" viewBox="0 0 252 252"><path d="M107 197.2A14.3 14.3 0 1 1 92.8 183a14.3 14.3 0 0 1 14.2 14.2zm33.2-14.2a14.3 14.3 0 1 0 14.3 14.2 14.3 14.3 0 0 0-14.3-14.2zm12.7-47.5L171.7 69H12l27.9 66.5zm47.2-95l-32.6 114H47.9l7.9 19h125.8l33-114h18.3l7.1-19z"/></symbol><symbol id="contact" viewBox="0 0 252 252"><path d="M126 31a95 95 0 1 1-95 95 95.1 95.1 0 0 1 95-95zm0-19a114 114 0 1 0 114 114A113.9 113.9 0 0 0 126 12zm0 119.2L69.1 87.8h113.8zm0 12.3l-57-44v64.3h114V99.5z"/></symbol><symbol id="twitter" viewBox="0 0 252 252"><path d="M126 31a95 95 0 1 1-95 95 95.1 95.1 0 0 1 95-95zm0-19a114 114 0 1 0 114 114A113.9 113.9 0 0 0 126 12zm61.8 83.4a47.4 47.4 0 0 1-13.5 3.7 23.4 23.4 0 0 0 10.3-13 44.8 44.8 0 0 1-14.9 5.7 23.4 23.4 0 0 0-39.8 21.3 66.3 66.3 0 0 1-48.2-24.4 23.4 23.4 0 0 0 7.2 31.2 22.7 22.7 0 0 1-10.6-2.9 23.5 23.5 0 0 0 18.8 23.2 23.5 23.5 0 0 1-10.6.4 23.6 23.6 0 0 0 21.9 16.3 47.4 47.4 0 0 1-34.6 9.7 66.2 66.2 0 0 0 35.8 10.5c43.4 0 68-36.7 66.5-69.6a48.1 48.1 0 0 0 11.7-12.1z"/></symbol><symbol id="instagram" viewBox="0 0 252 252"><path d="M126 31a95 95 0 1 1-95 95 95.1 95.1 0 0 1 95-95zm0-19a114 114 0 1 0 114 114A113.9 113.9 0 0 0 126 12zm0 67.3c15.2 0 17 0 23 .3 15.5.7 22.7 8 23.4 23.4.3 6 .3 7.8.3 23s0 17-.3 23c-.7 15.4-7.9 22.7-23.4 23.4-6 .3-7.8.3-23 .3s-17 0-23-.3c-15.5-.7-22.7-8.1-23.4-23.4-.3-6-.3-7.8-.3-23s0-17 .3-23c.7-15.4 7.9-22.7 23.4-23.4 6-.3 7.8-.3 23-.3zm0-10.3c-15.5 0-17.4.1-23.5.4-20.7.9-32.2 12.4-33.2 33.1-.2 6.1-.3 8-.3 23.5s.1 17.4.3 23.5c1 20.7 12.5 32.2 33.2 33.2 6.1.2 8 .3 23.5.3s17.4-.1 23.5-.3c20.7-1 32.2-12.5 33.2-33.2.2-6.1.3-8 .3-23.5s-.1-17.4-.3-23.5c-1-20.7-12.5-32.2-33.2-33.1-6.1-.3-8-.4-23.5-.4zm0 27.7a29.3 29.3 0 1 0 29.3 29.3A29.3 29.3 0 0 0 126 96.7zm0 48.3a19 19 0 1 1 19-19 19 19 0 0 1-19 19zm30.4-56.3a6.8 6.8 0 0 0-6.8 6.9 6.7 6.7 0 0 0 6.8 6.8 6.8 6.8 0 0 0 6.9-6.8 6.9 6.9 0 0 0-6.9-6.9z"/></symbol></svg>