<svg id="Working" xmlns="http://www.w3.org/2000/svg" width="3.6in" height="3.6in" viewBox="0 0 256.3 256"><title>Logo 256px</title><path d="M240.2,119.8c.1-1.4.2-2.8.2-4.2a40.8,40.8,0,0,0-37.6-40.7C156.1,54.4,102,52.6,55.1,74.9a41,41,0,0,0-37.2,40.7,42.1,42.1,0,0,0,.5,6.2,25.1,25.1,0,0,1-.4-2.7c-5.3,56.6-8.1,105.5,11.1,109.8,11.7,2.6,18.5-7.1,21.2-24.3,2.5-14.1,4.3-37.3,7.9-43.9,2.4,2.5,4.5,5.5,5.1,8.7,1.9,13.6,13.9,23.9,28,23.9a28,28,0,0,0,28-28c1.5-10.6-11.7-23-14.5-25.4a19.1,19.1,0,0,1-3.1-5.8c19.1-2.2,38.4-2.6,54.5,0a47.5,47.5,0,0,1-2.7,5.8c-1.9,2.3-15.9,14.8-14.5,25.4a28,28,0,0,0,28,28c14.1,0,26.1-10.3,28-23.9.6-3.1,2.6-6,5-8.5,3.5,6.8,5.3,29.7,7.8,43.7,2.7,17.2,9.5,26.9,21.1,24.3C248,224.6,245.4,176,240.2,119.8Zm-181,14.1-12.9-5.7-5.1-13.1,5.7-12.9L60,97.1l12.9,5.7L78,115.9l-5.6,12.9Zm48.9,27.5a1.1,1.1,0,0,1,1.1,1.1v7.8a1.1,1.1,0,0,1-1.1,1h-10v10.1a1.1,1.1,0,0,1-1.1,1H89.2a1.1,1.1,0,0,1-1-1V171.3H78.1a1.1,1.1,0,0,1-1-1v-7.8a1.1,1.1,0,0,1,1-1.1H88.2V151.3a1.1,1.1,0,0,1,1-1H97a1.1,1.1,0,0,1,1.1,1v10.1Zm22.5-38.6a5.3,5.3,0,1,1,5.3-5.2A5.3,5.3,0,0,1,130.6,122.8Zm51.5-32.2c2.9-7.2,15.2-7.6,19.4-6.6a6.6,6.6,0,0,1,4.6,6.2c-.1,2.7-2.1,5.8-4.8,5.8-5.9-.3-8.5,2.1-12.9,3.6s-4-.2-5.6-2.1S181,93.8,182.1,90.6Zm-7.4,29.7a8.4,8.4,0,1,1-8.4,8.4A8.4,8.4,0,0,1,174.7,120.3Zm6,59.7-13.1,5.1-12.9-5.7-5.1-13.1,5.7-12.9,13.1-5.1,12.9,5.6,5.1,13.2Zm19.5-50.6a13.9,13.9,0,1,1,13.9-13.8A13.8,13.8,0,0,1,200.2,129.4Zm32.5-10.9a6.6,6.6,0,0,1-6.3,4.5h0c-2.6-.2-5.7-2.3-5.6-5,.4-5.9-1.9-8.5-3.2-13s.3-4,2.2-5.5,3.8-1.8,6.9-.5C233.8,102.1,233.9,114.3,232.7,118.5Z" fill="#c9da2b"/><path d="M80.7,42.4V47c0,5.5-2.6,9.4-7.7,11.1s-7.6-.7-7.6-6.2V34.1c0-5.5,2.6-9.5,7.6-11.1s7.7.7,7.7,6.1v3.4L75.8,34V30.4c0-2.5-1-3.1-2.6-2.6s-2.7,1.8-2.7,4.3V50.6c0,2.4,1.1,3,2.7,2.5s2.6-1.8,2.6-4.2V44Z" fill="#231f20"/><path d="M91.4,18.6V45.1c0,2.4,1,3.1,2.7,2.8s2.7-1.4,2.7-3.8V17.6l5.1-.9V42.8c0,5.5-2.7,9.1-7.9,10.1s-8-1.7-8-7.2V19.6Z" fill="#231f20"/><path d="M115.2,15.3c5.2-.3,7.9,2.6,7.9,8.1v1.1l-5.1.3V23.4c0-2.5-.9-3.4-2.7-3.3s-2.6,1.1-2.6,3.6c0,7,10.5,7.8,10.5,17.6,0,5.5-2.8,8.7-8,9s-8.1-2.6-8.1-8.1V40.1l5.1-.3v2.4c0,2.5,1.1,3.3,2.8,3.2s2.8-1,2.8-3.5c0-7-10.5-7.8-10.5-17.6C107.3,18.8,110,15.5,115.2,15.3Z" fill="#231f20"/><path d="M127.2,15.2l16.6,1v4.9l-5.6-.4V50.1l-5.4-.3V20.4l-5.6-.3Z" fill="#231f20"/><path d="M148.1,24.9c0-5.5,2.9-8.1,8.1-7.2s8.1,4.5,8.1,10V45.6c0,5.4-2.9,8.1-8.1,7.2s-8.1-4.6-8.1-10ZM153.5,44c0,2.5,1,3.6,2.7,3.9s2.8-.5,2.8-2.9V26.4c0-2.4-1.1-3.5-2.8-3.8s-2.7.4-2.7,2.9Z" fill="#231f20"/><path d="M181,48.5l3.5-23.3,7.1,2.3V61.8l-4.8-1.5V35.7l-3.6,23.4-4.8-1.5-3.9-25.5V56.4L170,55V20.7l7.2,2.2Z" fill="#231f20"/><path d="M94.5,225.4v4.5c0,5.5-2.7,8.1-7.8,6.9s-7.8-5-7.8-10.4V208.5c0-5.5,2.6-8,7.8-6.8s7.8,4.9,7.8,10.4v3.3l-4.9-1.1v-3.7c0-2.4-1.1-3.6-2.8-4s-2.7.3-2.7,2.8v18.5c0,2.5,1.1,3.6,2.7,4s2.8-.3,2.8-2.7v-4.9Z" fill="#231f20"/><path d="M105.3,205.3v26.4c0,2.5,1.1,3.5,2.8,3.6s2.8-.6,2.8-3V205.8l5.1.5v26.1c0,5.5-2.8,8.4-8,7.9s-8-3.9-8-9.4V204.7Z" fill="#231f20"/><path d="M138.2,213.9v1.3c0,3.5-1.1,5.8-3.5,7,2.9,1,4.1,3.6,4.1,7.2v2.8c0,5.3-2.8,8.2-8.2,8.4l-8.5.2V206.5l8.1-.2C135.8,206.1,138.2,208.6,138.2,213.9Zm-10.7-2.7v9.1h2.1c2-.1,3.2-1,3.2-3.8v-1.9c0-2.4-.8-3.5-2.7-3.4Zm0,14v10.6h3.1c1.8-.1,2.8-.9,2.8-3.5v-3c0-3.2-1.1-4.1-3.5-4.1Z" fill="#231f20"/><path d="M149.7,219.1l7.4-1.1v4.9l-7.4,1.1v10.1l9.3-1.4v4.9l-14.6,2.1V205.4l14.6-2.1v4.9l-9.3,1.4Z" fill="#231f20"/><path d="M171.6,199.9c5.1-1.3,7.7,1.1,7.7,6.6v1.1l-4.9,1.3v-1.4c0-2.5-1-3.2-2.6-2.7s-2.6,1.6-2.6,4c0,7.1,10.2,5.7,10.2,15.5,0,5.5-2.7,9.4-7.8,10.7s-7.8-1.1-7.8-6.6v-2.1l5-1.3v2.5c0,2.4,1,3,2.7,2.6s2.7-1.6,2.7-4.1c0-7-10.2-5.7-10.2-15.5C164,205,166.6,201.2,171.6,199.9Z" fill="#231f20"/></svg>