<svg id="Working" xmlns="http://www.w3.org/2000/svg" width="0.4in" height="0.4in" viewBox="0 0 32 32"><title>logo-32</title><path d="M31.2,12.7v-.6a5.6,5.6,0,0,0-5.1-5.5,24.2,24.2,0,0,0-20.2,0A5.6,5.6,0,0,0,.8,12.1c0,.3.1.6.1.9s0-.3-.1-.4C.1,20.3-.3,27,2.4,27.6s2.5-1,2.8-3.3.6-5.1,1.1-6A1.9,1.9,0,0,1,7,19.5a3.9,3.9,0,0,0,3.8,3.2,3.8,3.8,0,0,0,3.9-3.8c.2-1.4-1.6-3.1-2-3.5a1.9,1.9,0,0,1-.4-.8,30.5,30.5,0,0,1,7.4,0,2.9,2.9,0,0,1-.4.8c-.2.3-2.1,2.1-1.9,3.5a3.8,3.8,0,0,0,3.8,3.8A3.9,3.9,0,0,0,25,19.5a2.4,2.4,0,0,1,.7-1.2c.5.9.7,4.1,1.1,6s1.2,3.6,2.8,3.3S31.9,20.4,31.2,12.7ZM6.5,14.6l-1.8-.8L4,12l.8-1.7,1.8-.7,1.7.8L9,12.2l-.7,1.7Zm6.6,3.8c.1,0,.2,0,.2.1v1.1H11.8v1.4H10.4V19.7H8.9V18.5c0-.1.1-.1.2-.1h1.3V17c0-.1.1-.1.2-.1h1c.1,0,.2,0,.2.1v1.4Zm3.1-5.3a.7.7,0,1,1,.7-.7A.7.7,0,0,1,16.2,13.1Zm7.1-4.4c.3-1,2-1,2.6-.9a1,1,0,0,1,.6.8c0,.4-.3.8-.6.8a4.8,4.8,0,0,0-1.8.5.8.8,0,0,1-.8-.3A.7.7,0,0,1,23.3,8.7Zm-1.1,4.1a1.1,1.1,0,1,1,0,2.2,1.1,1.1,0,1,1,0-2.2Zm.9,8.1-1.8.7-1.8-.8L18.8,19l.8-1.7,1.8-.7,1.7.7.7,1.8ZM25.7,14a1.9,1.9,0,0,1-1.9-1.9,2,2,0,0,1,1.9-1.9,1.9,1.9,0,0,1,1.9,1.9A1.8,1.8,0,0,1,25.7,14Zm4.5-1.5a.9.9,0,0,1-.9.6h0a.8.8,0,0,1-.8-.7,3.1,3.1,0,0,0-.4-1.7c0-.5,0-.6.3-.8a.9.9,0,0,1,.9-.1C30.3,10.3,30.3,11.9,30.2,12.5Z" fill="#c9da2b"/></svg>