<?xml version="1.0" encoding="utf-8"?>
<!-- Generator: Adobe Illustrator 24.0.3, SVG Export Plug-In . SVG Version: 6.00 Build 0)  -->
<svg version="1.1" id="Working" xmlns="http://www.w3.org/2000/svg" xmlns:xlink="http://www.w3.org/1999/xlink" x="0px" y="0px"
	 viewBox="0 0 259.2 259.2" style="enable-background:new 0 0 259.2 259.2;" xml:space="preserve">
<style type="text/css">
	.st0{fill:#C9DA2B;}
	.st1{fill:#FFFFFF;}
</style>
<title>Logo 256px</title>
<path class="st0" d="M242.9,121.3c0.1-1.4,0.2-2.8,0.2-4.2c0-21.5-16.5-39.5-38-41.2c-47.2-20.7-101.9-22.6-149.4,0
	c-21.3,2-37.6,19.8-37.6,41.2c0,2.1,0.2,4.2,0.5,6.3c-0.2-0.9-0.3-1.8-0.4-2.7c-5.4,57.2-8.2,106.7,11.2,111
	c11.8,2.6,18.7-7.2,21.4-24.6c2.5-14.3,4.3-37.7,8-44.4c2.4,2.5,4.6,5.6,5.2,8.8c1.9,13.8,14.1,24.2,28.3,24.2
	c15.6,0,28.3-12.7,28.3-28.3c1.5-10.7-11.8-23.3-14.7-25.7c-1.4-1.8-2.4-3.7-3.1-5.9c19.3-2.2,38.8-2.6,55.1,0c-0.8,2-1.7,4-2.7,5.9
	c-1.9,2.3-16.1,15-14.7,25.7c0,15.6,12.7,28.3,28.3,28.3c14.3,0,26.4-10.4,28.3-24.2c0.6-3.1,2.6-6.1,5.1-8.6
	c3.5,6.9,5.4,30,7.9,44.2c2.7,17.4,9.6,27.2,21.3,24.6C250.8,227.3,248.2,178.1,242.9,121.3z M59.9,135.6l-13-5.8l-5.2-13.2l5.8-13
	l13.2-5.2l13,5.8l5.2,13.2l-5.7,13L59.9,135.6z M109.3,163.4c0.6,0,1.1,0.5,1.1,1.1l0,0v7.9c-0.1,0.6-0.5,1-1.1,1H99.2v10.2
	c-0.1,0.6-0.5,1-1.1,1h-7.9c-0.5,0-1-0.5-1-1v-10.2H79c-0.5,0-1-0.5-1-1v-7.9c0-0.6,0.4-1.1,1-1.1h10.2v-10.2c0-0.5,0.5-1,1-1h7.9
	c0.6,0,1.1,0.4,1.1,1v10.2H109.3z M132.1,124.3c-3,0-5.4-2.4-5.4-5.4c0-3,2.4-5.4,5.4-5.4c3,0,5.4,2.4,5.4,5.4c0,0,0,0.1,0,0.1
	C137.4,122,135,124.3,132.1,124.3z M184.2,91.8c2.9-7.3,15.4-7.7,19.6-6.7c2.7,0.9,4.6,3.4,4.7,6.3c-0.1,2.7-2.1,5.9-4.9,5.9
	c-6-0.3-8.6,2.1-13,3.6c-4.4,1.5-4-0.2-5.7-2.1C183.3,96.8,183,95,184.2,91.8z M176.7,121.8c4.7,0,8.5,3.8,8.5,8.5s-3.8,8.5-8.5,8.5
	c-4.7,0-8.5-3.8-8.5-8.5c0,0,0,0,0,0C168.2,125.6,172,121.8,176.7,121.8L176.7,121.8z M182.7,182.2l-13.2,5.2l-13-5.8l-5.2-13.2
	l5.8-13l13.2-5.2l13,5.7l5.2,13.3L182.7,182.2z M202.5,131c-7.8,0-14.1-6.3-14.1-14.1c0-7.8,6.3-14.1,14.1-14.1
	c7.8,0,14.1,6.3,14.1,14.1c0,0,0,0.1,0,0.1c0,7.7-6.2,14-14,14C202.5,131,202.5,131,202.5,131L202.5,131z M235.3,120
	c-0.9,2.7-3.5,4.6-6.4,4.6l0,0c-2.6-0.2-5.8-2.3-5.7-5.1c0.4-6-1.9-8.6-3.2-13.1c-1.3-4.6,0.3-4,2.2-5.6c1.9-1.5,3.8-1.8,7-0.5
	C236.4,103.4,236.5,115.7,235.3,120L235.3,120z"/>
<path class="st1" d="M81.6,43v4.7c0,5.6-2.6,9.5-7.8,11.2c-5.2,1.7-7.7-0.7-7.7-6.3v-18c0-5.6,2.6-9.6,7.7-11.2
	c5.1-1.6,7.8,0.7,7.8,6.2V33l-5,1.5v-3.6c0-2.5-1-3.1-2.6-2.6c-1.6,0.5-2.7,1.8-2.7,4.3v18.7c0,2.4,1.1,3,2.7,2.5s2.6-1.8,2.6-4.2
	v-5L81.6,43z"/>
<path class="st1" d="M92.4,19v26.8c0,2.4,1,3.1,2.7,2.8c1.7-0.3,2.7-1.4,2.7-3.8V18l5.2-0.9v26.4c0,5.6-2.7,9.2-8,10.2
	S87,51.9,87,46.4V20L92.4,19z"/>
<path class="st1" d="M116.5,15.6c5.3-0.3,8,2.6,8,8.2v1.1l-5.2,0.3v-1.4c0-2.5-0.9-3.4-2.7-3.3c-1.8,0.1-2.6,1.1-2.6,3.6
	c0,7.1,10.6,7.9,10.6,17.8c0,5.6-2.8,8.8-8.1,9.1s-8.2-2.6-8.2-8.2v-2.1l5.2-0.3v2.4c0,2.5,1.1,3.3,2.8,3.2s2.8-1,2.8-3.5
	c0-7.1-10.6-7.9-10.6-17.8C108.5,19.2,111.2,15.8,116.5,15.6z"/>
<path class="st1" d="M128.6,15.5l16.8,1v5l-5.7-0.4v29.7l-5.5-0.3V20.8l-5.7-0.3V15.5z"/>
<path class="st1" d="M149.8,25.3c0-5.6,2.9-8.2,8.2-7.3s8.2,4.6,8.2,10.1v18.1c0,5.5-2.9,8.2-8.2,7.3c-5.3-0.9-8.2-4.7-8.2-10.1
	V25.3z M155.2,44.6c0,2.5,1,3.6,2.7,3.9c1.7,0.3,2.8-0.5,2.8-2.9V26.9c0-2.4-1.1-3.5-2.8-3.8c-1.7-0.3-2.7,0.4-2.7,2.9V44.6z"/>
<path class="st1" d="M183,49.2l3.5-23.6l7.2,2.3v34.7l-4.9-1.5V36.3l-3.6,23.7l-4.9-1.5l-3.9-25.8v24.6l-4.6-1.4V21.1l7.3,2.2
	L183,49.2z"/>
<path class="st1" d="M95.6,228.1v4.6c0,5.6-2.7,8.2-7.9,7c-5.2-1.2-7.9-5.1-7.9-10.5V211c0-5.6,2.6-8.1,7.9-6.9
	c5.3,1.2,7.9,5,7.9,10.5v3.3l-5-1.1v-3.7c0-2.4-1.1-3.6-2.8-4c-1.7-0.4-2.7,0.3-2.7,2.8v18.7c0,2.5,1.1,3.6,2.7,4s2.8-0.3,2.8-2.7
	v-5L95.6,228.1z"/>
<path class="st1" d="M106.5,207.8v26.7c0,2.5,1.1,3.5,2.8,3.6s2.8-0.6,2.8-3v-26.8l5.2,0.5v26.4c0,5.6-2.8,8.5-8.1,8
	s-8.1-3.9-8.1-9.5v-26.5L106.5,207.8z"/>
<path class="st1" d="M139.8,216.5v1.3c0,3.5-1.1,5.9-3.5,7.1c2.9,1,4.1,3.6,4.1,7.3v2.8c0,5.4-2.8,8.3-8.3,8.5l-8.6,0.2V209l8.2-0.2
	C137.3,208.6,139.8,211.1,139.8,216.5z M128.9,213.7v9.2h2.1c2-0.1,3.2-1,3.2-3.8v-1.9c0-2.4-0.8-3.5-2.7-3.4L128.9,213.7z
	 M128.9,227.9v10.7h3.1c1.8-0.1,2.8-0.9,2.8-3.5v-3c0-3.2-1.1-4.1-3.5-4.1H128.9z"/>
<path class="st1" d="M151.4,221.7l7.5-1.1v5l-7.5,1.1v10.2l9.4-1.4v5l-14.8,2.1v-34.7l14.8-2.1v5l-9.4,1.4V221.7z"/>
<path class="st1" d="M173.5,202.3c5.2-1.3,7.8,1.1,7.8,6.7v1.1l-5,1.3V210c0-2.5-1-3.2-2.6-2.7c-1.6,0.5-2.6,1.6-2.6,4
	c0,7.2,10.3,5.8,10.3,15.7c0,5.6-2.7,9.5-7.9,10.8s-7.9-1.1-7.9-6.7V229l5.1-1.3v2.5c0,2.4,1,3,2.7,2.6c1.7-0.4,2.7-1.6,2.7-4.1
	c0-7.1-10.3-5.8-10.3-15.7C165.9,207.5,168.5,203.6,173.5,202.3z"/>
</svg>
