<svg id="Working" xmlns="http://www.w3.org/2000/svg" width="0.2in" height="0.2in" viewBox="0 0 16 16"><title>logo-16</title><path d="M15.6,6.3V6.1A2.8,2.8,0,0,0,13,3.3a12,12,0,0,0-10,0A2.8,2.8,0,0,0,.4,6.1a.8.8,0,0,0,.1.4C.4,6.4.4,6.4.4,6.3c-.3,3.9-.5,7.2.8,7.5s1.2-.5,1.4-1.7a17.6,17.6,0,0,1,.6-3c.1.2.3.4.3.6a1.9,1.9,0,0,0,1.9,1.7A1.9,1.9,0,0,0,7.3,9.5c.1-.8-.8-1.6-1-1.8s-.1-.2-.2-.4a16.1,16.1,0,0,1,3.8,0c-.1.2-.2.3-.2.4s-1.1,1-1,1.8a1.9,1.9,0,0,0,1.9,1.9,1.9,1.9,0,0,0,1.9-1.7c0-.2.2-.4.3-.6a17.6,17.6,0,0,1,.6,3c.2,1.2.6,1.9,1.4,1.7S15.9,10.2,15.6,6.3ZM3.2,7.3l-.8-.4L2,6l.4-.9.9-.3.9.4.3.9L4.1,7ZM6.6,9.2h0v.5H5.9v.6H5.2V9.9H4.5V9.3h.7V8.5h.7v.7ZM8.1,6.5a.3.3,0,0,1-.3-.3c0-.2.1-.4.3-.4a.4.4,0,0,1,.4.4C8.5,6.4,8.3,6.5,8.1,6.5Zm3.5-2.1c.2-.5,1.1-.6,1.3-.5a.4.4,0,0,1,.4.4.4.4,0,0,1-.4.4c-.4,0-.5.2-.8.3s-.3,0-.4-.2S11.5,4.6,11.6,4.4Zm-.5,2a.6.6,0,0,1,.6.5.6.6,0,0,1-1.2,0A.6.6,0,0,1,11.1,6.4Zm.4,4-.9.4-.8-.4-.4-.9.4-.9.9-.3.9.4.3.9ZM12.9,7a.9.9,0,0,1-1-.9.9.9,0,0,1,1-1,.9.9,0,0,1,.9,1A.9.9,0,0,1,12.9,7Zm2.2-.7a.9.9,0,0,1-.5.3h0c-.1-.1-.3-.2-.3-.4a2.4,2.4,0,0,0-.3-.9c0-.2.1-.2.2-.3s.3-.2.5-.1S15.2,6,15.1,6.3Z" fill="#c9da2b"/></svg>